<svg width="15" height="19" viewBox="0 0 15 19" fill="none" xmlns="http://www.w3.org/2000/svg">
<path d="M9.9911 3.79402C10.6045 3.02598 11.0276 1.97926 10.9087 0.918945C10.02 0.959727 8.9087 1.53406 8.26809 2.28512C7.70225 2.94781 7.19419 4.03361 7.32672 5.05314C8.32586 5.12791 9.35049 4.55017 9.9911 3.79402Z" fill="white"/>
<path d="M12.2409 10.455C12.2188 8.18991 14.0947 7.08711 14.1814 7.03614C13.1194 5.48645 11.4728 5.27575 10.8934 5.25876C9.51192 5.11432 8.17124 6.08797 7.46776 6.08797C6.74899 6.08797 5.66319 5.27405 4.49583 5.29784C2.99032 5.32163 1.58337 6.19333 0.811927 7.5442C-0.778541 10.302 0.407513 14.353 1.93341 16.5823C2.69806 17.6732 3.58845 18.8933 4.75581 18.8491C5.89769 18.8015 6.32419 18.1218 7.70226 18.1218C9.06843 18.1218 9.46944 18.8491 10.6606 18.8219C11.8857 18.8015 12.6572 17.7259 13.3929 16.6231C14.2765 15.3725 14.63 14.1406 14.6436 14.0777C14.6147 14.0675 12.2647 13.1703 12.2409 10.455Z" fill="white"/>
</svg>